# xmcd CD database file
#
# Track frame offsets:
#	150
#	19953
#	39303
#
# Disc length: 748 seconds
#
# Revision: 1
# Processed by: cddbd v1.5.2PL0 Copyright (c) Steve Scherf et al.
# Submitted via: CDex 1.70beta2
#
DISCID=1b02ea03
DTITLE=Angelique - 恋は胸きゅん
DYEAR=2005
DGENRE=J-POP
TTITLE0=恋は胸きゅん
TTITLE1=ＶＥＮＵＳ
TTITLE2=シンデレラ・ドリーム
EXTD=YEAR: 2005
EXTT0=
EXTT1=
EXTT2=
PLAYORDER=
